<?xml version="1.0" standalone="no"?>
<svg xmlns:xlink="http://www.w3.org/1999/xlink" id="wave" style="transform:rotate(0deg); transition: 0.3s" viewBox="0 0 1440 490" version="1.1" xmlns="http://www.w3.org/2000/svg"><defs><linearGradient id="sw-gradient-0" x1="0" x2="0" y1="1" y2="0"><stop stop-color="rgba(4, 75, 127, 1)" offset="0%"/><stop stop-color="rgba(72.947, 162.477, 228.049, 1)" offset="100%"/></linearGradient></defs><path style="transform:translate(0, 0px); opacity:1" fill="url(#sw-gradient-0)" d="M0,294L40,318.5C80,343,160,392,240,408.3C320,425,400,408,480,351.2C560,294,640,196,720,147C800,98,880,98,960,138.8C1040,180,1120,261,1200,294C1280,327,1360,310,1440,269.5C1520,229,1600,163,1680,138.8C1760,114,1840,131,1920,122.5C2000,114,2080,82,2160,81.7C2240,82,2320,114,2400,179.7C2480,245,2560,343,2640,318.5C2720,294,2800,147,2880,98C2960,49,3040,98,3120,147C3200,196,3280,245,3360,220.5C3440,196,3520,98,3600,122.5C3680,147,3760,294,3840,334.8C3920,376,4000,310,4080,285.8C4160,261,4240,278,4320,236.8C4400,196,4480,98,4560,98C4640,98,4720,196,4800,220.5C4880,245,4960,196,5040,204.2C5120,212,5200,278,5280,310.3C5360,343,5440,343,5520,343C5600,343,5680,343,5720,343L5760,343L5760,490L5720,490C5680,490,5600,490,5520,490C5440,490,5360,490,5280,490C5200,490,5120,490,5040,490C4960,490,4880,490,4800,490C4720,490,4640,490,4560,490C4480,490,4400,490,4320,490C4240,490,4160,490,4080,490C4000,490,3920,490,3840,490C3760,490,3680,490,3600,490C3520,490,3440,490,3360,490C3280,490,3200,490,3120,490C3040,490,2960,490,2880,490C2800,490,2720,490,2640,490C2560,490,2480,490,2400,490C2320,490,2240,490,2160,490C2080,490,2000,490,1920,490C1840,490,1760,490,1680,490C1600,490,1520,490,1440,490C1360,490,1280,490,1200,490C1120,490,1040,490,960,490C880,490,800,490,720,490C640,490,560,490,480,490C400,490,320,490,240,490C160,490,80,490,40,490L0,490Z"/><defs><linearGradient id="sw-gradient-1" x1="0" x2="0" y1="1" y2="0"><stop stop-color="rgba(58.295, 149.712, 216.665, 1)" offset="0%"/><stop stop-color="rgba(4, 75, 127, 1)" offset="100%"/></linearGradient></defs><path style="transform:translate(0, 50px); opacity:0.9" fill="url(#sw-gradient-1)" d="M0,245L40,204.2C80,163,160,82,240,40.8C320,0,400,0,480,65.3C560,131,640,261,720,302.2C800,343,880,294,960,294C1040,294,1120,343,1200,302.2C1280,261,1360,131,1440,106.2C1520,82,1600,163,1680,236.8C1760,310,1840,376,1920,383.8C2000,392,2080,343,2160,318.5C2240,294,2320,294,2400,269.5C2480,245,2560,196,2640,163.3C2720,131,2800,114,2880,163.3C2960,212,3040,327,3120,310.3C3200,294,3280,147,3360,106.2C3440,65,3520,131,3600,179.7C3680,229,3760,261,3840,294C3920,327,4000,359,4080,310.3C4160,261,4240,131,4320,73.5C4400,16,4480,33,4560,89.8C4640,147,4720,245,4800,253.2C4880,261,4960,180,5040,147C5120,114,5200,131,5280,138.8C5360,147,5440,147,5520,163.3C5600,180,5680,212,5720,228.7L5760,245L5760,490L5720,490C5680,490,5600,490,5520,490C5440,490,5360,490,5280,490C5200,490,5120,490,5040,490C4960,490,4880,490,4800,490C4720,490,4640,490,4560,490C4480,490,4400,490,4320,490C4240,490,4160,490,4080,490C4000,490,3920,490,3840,490C3760,490,3680,490,3600,490C3520,490,3440,490,3360,490C3280,490,3200,490,3120,490C3040,490,2960,490,2880,490C2800,490,2720,490,2640,490C2560,490,2480,490,2400,490C2320,490,2240,490,2160,490C2080,490,2000,490,1920,490C1840,490,1760,490,1680,490C1600,490,1520,490,1440,490C1360,490,1280,490,1200,490C1120,490,1040,490,960,490C880,490,800,490,720,490C640,490,560,490,480,490C400,490,320,490,240,490C160,490,80,490,40,490L0,490Z"/></svg>